# xmcd
#
# Track frame offsets: 
#        150
#        18116
#        27842
#        39054
#        52229
#        68047
#        78222
#        97574
#        121424
#        128238
#        138931
#        151193
#        160937
#        174284
#        180729
#        197160
#        215523
#
# Disc length: 3107 seconds
#
# Revision: 0
# Processed by: cddbd v1.5.2PL0 Copyright (c) Steve Scherf et al.
# Submitted via: ExactAudioCopy v0.99pb4
#
DISCID=cf0c2111
DTITLE=Lada Gorpienko - Piesni Bulata Okudzawy
DYEAR=2003
DGENRE=Ballad
TTITLE0=Zaciagnijcie na oknie niebieska zas³one...
TTITLE1=Piosenka o papierowym zolnierzyku
TTITLE2=Malarze
TTITLE3=Piosenka o nadziei
TTITLE4=Pisze powiesc historyczna
TTITLE5=J. W. Pani Rozlako...
TTITLE6=Piosenka o krolu i zolnierzach
TTITLE7=Piosenka o robaku
TTITLE8=Cieszmy sie...
TTITLE9=Wartownicy milosci
TTITLE10=Piosenka o Arbacie
TTITLE11=Balonik
TTITLE12=Sloneczko przygrzewa
TTITLE13=Katarynka
TTITLE14=Ostatni trolejbus
TTITLE15=Aleksander Sergiejewicz Puszkin
TTITLE16=Modlitwa
EXTD=
EXTT0=
EXTT1=
EXTT2=
EXTT3=
EXTT4=
EXTT5=
EXTT6=
EXTT7=
EXTT8=
EXTT9=
EXTT10=
EXTT11=
EXTT12=
EXTT13=
EXTT14=
EXTT15=
EXTT16=
PLAYORDER=
